<?xml version="1.0" encoding="UTF-8"?>
<svg width="24px" height="24px" viewBox="0 0 24 24" version="1.1" xmlns="http://www.w3.org/2000/svg" xmlns:xlink="http://www.w3.org/1999/xlink">
    <!-- Generator: Sketch 46 (44423) - http://www.bohemiancoding.com/sketch -->
    <title>xxhdpi/Card View/Aberto/2</title>
    <desc>Created with Sketch.</desc>
    <defs>
        <rect id="path-1" x="0" y="0" width="884" height="636"></rect>
        <filter x="-0.8%" y="-0.8%" width="101.6%" height="102.2%" filterUnits="objectBoundingBox" id="filter-2">
            <feOffset dx="0" dy="2" in="SourceAlpha" result="shadowOffsetOuter1"></feOffset>
            <feGaussianBlur stdDeviation="2" in="shadowOffsetOuter1" result="shadowBlurOuter1"></feGaussianBlur>
            <feColorMatrix values="0 0 0 0 0   0 0 0 0 0   0 0 0 0 0  0 0 0 0.2 0" type="matrix" in="shadowBlurOuter1"></feColorMatrix>
        </filter>
    </defs>
    <g id="Page-1" stroke="none" stroke-width="1" fill="none" fill-rule="evenodd">
        <g id="Proposta" transform="translate(-965.000000, -342.000000)">
            <g id="Stacked-Group" transform="translate(238.000000, 302.000000)">
                <g id="Card-View/Aberto/2">
                    <g id="Card-View">
                        <g id="Background">
                            <use fill="black" fill-opacity="1" filter="url(#filter-2)" xlink:href="#path-1"></use>
                            <use fill="#FFFFFF" fill-rule="evenodd" xlink:href="#path-1"></use>
                        </g>
                        <rect id="Rectangle-2" x="0" y="0" width="884" height="134"></rect>
                    </g>
                    <path d="M739,40 C732.382813,40 727,45.382813 727,52 C727,58.617188 732.382813,64 739,64 C745.617188,64 751,58.617188 751,52 C751,45.382813 745.617188,40 739,40 Z M739,42 C744.535156,42 749,46.464844 749,52 C749,57.535156 744.535156,62 739,62 C733.464844,62 729,57.535156 729,52 C729,46.464844 733.464844,42 739,42 Z M738,44 L738,53 L745,53 L745,51 L740,51 L740,44 L738,44 Z" id="Shape" fill-opacity="0.396654212" fill="#000000" fill-rule="nonzero"></path>
                </g>
            </g>
        </g>
    </g>
</svg>