<?xml version="1.0" encoding="UTF-8"?>
<svg width="26px" height="20px" viewBox="0 0 26 20" version="1.1" xmlns="http://www.w3.org/2000/svg" xmlns:xlink="http://www.w3.org/1999/xlink">
    <!-- Generator: Sketch 46 (44423) - http://www.bohemiancoding.com/sketch -->
    <title>xxhdpi/Delivery</title>
    <desc>Created with Sketch.</desc>
    <defs>
        <rect id="path-1" x="0" y="0" width="884" height="636"></rect>
        <filter x="-0.8%" y="-0.8%" width="101.6%" height="102.2%" filterUnits="objectBoundingBox" id="filter-2">
            <feOffset dx="0" dy="2" in="SourceAlpha" result="shadowOffsetOuter1"></feOffset>
            <feGaussianBlur stdDeviation="2" in="shadowOffsetOuter1" result="shadowBlurOuter1"></feGaussianBlur>
            <feColorMatrix values="0 0 0 0 0   0 0 0 0 0   0 0 0 0 0  0 0 0 0.2 0" type="matrix" in="shadowBlurOuter1"></feColorMatrix>
        </filter>
    </defs>
    <g id="Page-1" stroke="none" stroke-width="1" fill="none" fill-rule="evenodd">
        <g id="Proposta" transform="translate(-829.000000, -391.000000)">
            <g id="Stacked-Group" transform="translate(238.000000, 302.000000)">
                <g id="Card-View/Aberto/2">
                    <g id="Card-View">
                        <g id="Background">
                            <use fill="black" fill-opacity="1" filter="url(#filter-2)" xlink:href="#path-1"></use>
                            <use fill="#FFFFFF" fill-rule="evenodd" xlink:href="#path-1"></use>
                        </g>
                        <rect id="Rectangle-2" x="0" y="0" width="884" height="134"></rect>
                        <g id="Sub-header" transform="translate(470.000000, 87.000000)" fill-opacity="0.396654212" fill-rule="nonzero" fill="#000000">
                            <g id="Delivery" transform="translate(121.000000, 0.000000)">
                                <path d="M3.230625,4 C2.364375,4.06756757 2,4.76351351 2,5.25 L2,16.5405405 C2,17.2550677 2.59296864,17.8378378 3.32,17.8378378 L5.12125,17.8378378 C5.33093772,19.0608108 6.41718772,20 7.72,20 C9.02281272,20 10.1090627,19.0608108 10.31875,17.8378378 L15.64,17.8378378 L15.64,5.25506768 C15.64,4.58614876 15.0435936,4 14.3629686,4 L3.230625,4 Z M8.6,6.16216216 C10.7776564,6.16216216 12.56,7.91385124 12.56,10.0540541 C12.56,12.1942569 10.7776564,13.9459459 8.6,13.9459459 C6.42234364,13.9459459 4.64,12.1942569 4.64,10.0540541 C4.64,7.91385124 6.42234364,6.16216216 8.6,6.16216216 Z M16.52,7.02702703 L16.52,17.8378378 L16.9995314,17.8378378 C17.2092186,19.0624999 18.29375,20 19.6,20 C20.90625,20 21.9890627,19.0624999 22.2004686,17.8378378 L22.68,17.8378378 C23.3589064,17.8378378 24,17.2077704 24,16.5405405 L24,12.3902028 C24,11.5422296 23.3760936,10.6418919 23.2970314,10.5320947 L21.48375,8.14189189 C21.1451564,7.72466205 20.4507814,7.02702703 19.6,7.02702703 L16.52,7.02702703 Z M8.16,7.45945946 L8.16,9.83783784 L6.57703136,11.0050677 L7.10296864,11.697635 L9.04,10.2702703 L9.04,7.45945946 L8.16,7.45945946 Z M18.72,7.89189189 L19.6,7.89189189 C19.9471877,7.89189189 20.3940627,8.18750011 20.7876564,8.66891892 L22.58375,11.0371624 C22.7160936,11.2246621 23.0340627,11.7584458 23.10625,12.2162162 L19.16,12.2162162 C18.9623436,12.2162162 18.72,11.9780406 18.72,11.7837838 L18.72,7.89189189 Z M7.72,15.6756757 C8.69796864,15.6756757 9.48,16.4442569 9.48,17.4054054 C9.48,18.3665539 8.69796864,19.1351351 7.72,19.1351351 C6.74203136,19.1351351 5.96,18.3665539 5.96,17.4054054 C5.96,16.4442569 6.74203136,15.6756757 7.72,15.6756757 Z M19.6,15.6756757 C20.5710936,15.6756757 21.36,16.4510136 21.36,17.4054054 C21.36,18.3597972 20.5710936,19.1351351 19.6,19.1351351 C18.6289064,19.1351351 17.84,18.3597972 17.84,17.4054054 C17.84,16.4510136 18.6289064,15.6756757 19.6,15.6756757 Z" id="Shape"></path>
                            </g>
                        </g>
                    </g>
                </g>
            </g>
        </g>
    </g>
</svg>