<?xml version="1.0" encoding="UTF-8"?>
<svg width="279px" height="198px" viewBox="0 0 279 198" version="1.1" xmlns="http://www.w3.org/2000/svg" xmlns:xlink="http://www.w3.org/1999/xlink">
    <!-- Generator: Sketch Beta 55 (78076) - https://sketchapp.com -->
    <title>Logo-monocramatica@2x</title>
    <desc>Created with Sketch Beta.</desc>
    <g id="Logo-monocramatica" stroke="none" stroke-width="1" fill="none" fill-rule="evenodd" fill-opacity="0.797073143">
        <g id="SVG-/-Logo-/-White-Copy" fill="#000000">
            <path d="M0,151.411765 L23.3333333,151.411765 L23.3333333,159.733632 L15.6345465,159.733632 L15.6345465,195.670588 L7.46408151,195.670588 L7.46408151,159.733632 L0,159.733632 L0,151.411765 Z M28.78575,152.780876 L36.82875,152.780876 L36.82875,168.436853 C38.4014167,167.078806 39.9740833,166.063182 41.5654167,165.388818 C43.1485833,164.714453 44.7609167,164.372029 46.38375,164.372029 C49.5594167,164.372029 52.2404167,165.470347 54.4174167,167.672806 C56.2805833,169.574771 57.2080833,172.371229 57.2080833,176.054029 L57.2080833,197.214406 L49.2864167,197.214406 L49.2864167,183.178535 C49.2864167,179.475935 49.1149167,176.960171 48.7625833,175.652206 C48.4090833,174.333759 47.80475,173.357735 46.9484167,172.703171 C46.1014167,172.060253 45.04325,171.737629 43.7925833,171.737629 C42.1709167,171.737629 40.76975,172.281547 39.60075,173.357735 C38.4410833,174.435088 37.6349167,175.903782 37.1810833,177.764982 C36.9500833,178.730524 36.82875,180.924829 36.82875,184.354888 L36.82875,197.214406 L28.78575,197.214406 L28.78575,152.780876 Z M80.41075,183.449912 L71.3095833,183.449912 C71.6829167,185.735065 72.67925,187.5555 74.29275,188.913547 C75.89225,190.251794 77.9385833,190.924994 80.41075,190.936641 L80.41075,197.999418 C75.43725,197.978453 71.3795833,196.399112 68.24475,193.250912 C65.0900833,190.091065 63.5080833,186.126406 63.5080833,181.367418 C63.5080833,176.486135 65.0900833,172.431794 68.24475,169.211382 C71.3994167,165.982818 75.3509167,164.372029 80.1179167,164.372029 L80.41075,164.374359 L80.41075,171.255441 C78.2174167,171.278735 76.2959167,171.892535 74.62525,173.106159 C73.5670833,173.870206 72.5789167,175.228253 71.6724167,177.170982 L80.41075,177.170982 L80.41075,183.449912 Z M80.41075,190.936641 L80.4714167,190.936641 C83.4744167,190.936641 86.0445833,189.880253 88.20175,187.766312 L94.9544167,190.956441 C93.2709167,193.351076 91.2455833,195.121429 88.8970833,196.280312 C86.53925,197.426382 83.74625,197.999418 80.5110833,197.999418 L80.41075,197.999418 L80.41075,190.936641 Z M97.16175,183.449912 L80.41075,183.449912 L80.41075,177.170982 L89.1490833,177.170982 C88.61475,175.420429 87.5670833,173.9925 86.0049167,172.894182 C84.43225,171.798194 82.6180833,171.254276 80.5414167,171.254276 L80.41075,171.255441 L80.41075,164.374359 C85.3270833,164.436088 89.3404167,166.044547 92.4449167,169.192747 C95.6089167,172.411994 97.1920833,176.648029 97.1920833,181.929971 L97.16175,183.449912 Z M102.666667,153.741176 L124.196333,153.741176 L124.196333,161.711259 L110.891667,161.711259 L110.891667,169.619612 L124.196333,169.619612 L124.196333,177.589694 L110.891667,177.589694 L110.891667,197.0892 L102.666667,197.0892 L102.666667,153.741176 Z M146.027,197.799787 C145.542833,197.848705 145.048167,197.873164 144.545333,197.873164 C140.382667,197.873164 136.795167,196.274022 133.760667,193.065258 C130.727333,189.864646 129.215333,185.880187 129.215333,181.121199 C129.215333,176.180516 130.687667,172.135493 133.6195,168.975646 C136.5525,165.826281 140.110833,164.245775 144.302667,164.245775 C144.8895,164.245775 145.464667,164.280716 146.027,164.34594 L146.027,171.61254 L145.955833,171.61254 C143.456833,171.61254 141.381333,172.487234 139.7375,174.248269 C138.084333,175.998822 137.258333,178.253693 137.258333,181.000069 C137.258333,183.766246 138.094833,186.040916 139.778333,187.831069 C141.461833,189.613069 143.526833,190.508728 145.987333,190.508728 L146.027,190.507564 L146.027,197.799787 Z M154.432833,165.030787 L162.477,165.030787 L162.477,197.089316 L154.432833,197.089316 L154.432833,193.677893 C152.860167,195.167552 151.278167,196.233258 149.696167,196.887822 C148.544667,197.363022 147.319667,197.66934 146.027,197.799787 L146.027,190.507564 C148.538833,190.498246 150.631833,189.623552 152.286167,187.872999 C153.960333,186.122446 154.796833,183.817493 154.796833,180.969787 C154.796833,178.182646 153.960333,175.92894 152.286167,174.197022 C150.638833,172.493058 148.545833,171.627681 146.027,171.61254 L146.027,164.34594 C147.322,164.498516 148.556333,164.824634 149.737,165.323128 C151.429833,166.037093 152.992,167.123764 154.432833,168.554022 L154.432833,165.030787 Z M168.715517,165.031136 L175.670017,165.031136 L175.670017,169.106442 C176.416683,167.516619 177.402517,166.309984 178.63335,165.484207 C179.87235,164.659595 181.22335,164.246125 182.685183,164.246125 C183.72235,164.246125 184.812017,164.518666 185.949517,165.071901 L183.450517,172.014713 C182.513683,171.541842 181.73785,171.310066 181.133517,171.310066 C179.902683,171.310066 178.85385,172.075278 178.008017,173.603372 C177.150517,175.133795 176.728183,178.131748 176.728183,182.59956 L176.758517,184.160266 L176.758517,197.088501 L168.715517,197.088501 L168.715517,165.031136 Z M189.871617,165.031136 L197.914617,165.031136 L197.914617,168.774501 C199.294783,167.25456 200.827783,166.118972 202.520617,165.37356 C204.20295,164.618831 206.048617,164.246125 208.043617,164.246125 C210.049117,164.246125 211.873783,164.73996 213.486117,165.726466 C215.110117,166.710642 216.409783,168.160701 217.39795,170.053348 C218.676617,168.160701 220.249283,166.710642 222.114783,165.726466 C223.97795,164.73996 226.024283,164.246125 228.232783,164.246125 C230.520617,164.246125 232.53545,164.77956 234.270283,165.835948 C236.013283,166.893501 237.252283,168.281831 238.01995,169.982301 C238.774783,171.693254 239.15745,174.469913 239.15745,178.313442 L239.15745,197.088501 L231.115617,197.088501 L231.115617,180.888607 C231.115617,177.267536 230.661783,174.811172 229.744783,173.534654 C228.827783,172.255807 227.44645,171.611725 225.621783,171.611725 C224.220617,171.611725 222.971117,172.004231 221.873283,172.789242 C220.763783,173.563772 219.937783,174.651607 219.402283,176.028289 C218.86795,177.408466 218.596117,179.621407 218.596117,182.679925 L218.596117,197.088501 L210.554283,197.088501 L210.554283,181.623536 C210.554283,178.766513 210.34195,176.693336 209.909117,175.415654 C209.485617,174.127489 208.84045,173.181748 207.99345,172.548148 C207.137117,171.923866 206.098783,171.611725 204.88895,171.611725 C203.539117,171.611725 202.308283,172.004231 201.21045,172.799725 C200.102117,173.595219 199.28545,174.701689 198.731283,176.129619 C198.18645,177.558713 197.914617,179.812419 197.914617,182.881419 L197.914617,197.088501 L189.871617,197.088501 L189.871617,165.031136 Z M262.137633,197.799787 C261.653467,197.848705 261.1588,197.873164 260.655967,197.873164 C256.4933,197.873164 252.9058,196.274022 249.8713,193.065258 C246.837967,189.864646 245.325967,185.880187 245.325967,181.121199 C245.325967,176.180516 246.7983,172.135493 249.730133,168.975646 C252.663133,165.826281 256.221467,164.245775 260.414467,164.245775 C261.000133,164.245775 261.5753,164.280716 262.137633,164.34594 L262.137633,171.61254 L262.067633,171.61254 C259.567467,171.61254 257.491967,172.487234 255.848133,174.248269 C254.194967,175.998822 253.368967,178.253693 253.368967,181.000069 C253.368967,183.766246 254.205467,186.040916 255.888967,187.831069 C257.572467,189.613069 259.638633,190.508728 262.097967,190.508728 L262.137633,190.507564 L262.137633,197.799787 Z M270.543467,165.030787 L278.587633,165.030787 L278.587633,197.089316 L270.543467,197.089316 L270.543467,193.677893 C268.9708,195.167552 267.389967,196.233258 265.807967,196.887822 C264.6553,197.363022 263.4303,197.66934 262.137633,197.799787 L262.137633,190.507564 C264.649467,190.498246 266.742467,189.623552 268.3968,187.872999 C270.070967,186.122446 270.907467,183.817493 270.907467,180.969787 C270.907467,178.182646 270.070967,175.92894 268.3968,174.197022 C266.749467,172.493058 264.656467,171.627681 262.137633,171.61254 L262.137633,164.34594 C263.432633,164.498516 264.666967,164.824634 265.847633,165.323128 C267.540467,166.037093 269.102633,167.123764 270.543467,168.554022 L270.543467,165.030787 Z" id="Combined-Shape"></path>
            <path d="M140.772704,26.5526376 C141.294172,28.5584285 142.075899,30.6170867 143.184767,32.7578188 C143.959433,34.2661129 145.025767,35.8652541 146.342933,37.4807012 C152.046767,44.5178541 156.4416,48.3380894 160.4561,57.3808659 C163.6306,64.5461365 163.709933,72.4207129 162.882767,80.15436 C162.0731,83.8103718 160.873767,87.1449247 159.683767,90.0450424 C159.0666,91.5370306 158.449433,92.9207012 157.8661,94.1750894 C152.803933,70.5560188 124.788767,72.0713012 122.0786,46.1076776 C119.297267,19.5593718 142.204767,1.09296 143.426267,0.128583529 C141.32861,9.62883405 138.434616,17.559331 140.772704,26.5526376 C143.872853,35.9994113 149.586113,39.6266583 156.525717,46.7233412 C158.349217,48.5996824 160.103883,50.7101294 161.598383,53.0768118 C162.32405,54.2799529 163.01355,55.4924118 163.60505,56.8294941 C164.180217,58.0978588 164.685383,59.4407647 165.104217,60.786 C165.972217,63.4811294 166.55205,66.2822471 166.843717,69.0775412 C167.123717,71.8716706 167.114383,74.6553176 166.85305,77.3178353 C166.347883,82.6580118 164.94205,87.4647529 163.54205,91.4340706 C163.32155,92.0548588 163.10105,92.6558471 162.882883,93.2382 C173.25805,82.1140941 184.600383,66.8902235 180.72005,49.4836941 C176.283217,29.6033294 146.232217,28.0368 143.46255,-6.39488462e-14 C141.167717,8.18555294 137.58605,13.6422 139.88905,23.3942824 C140.15409,24.517489 140.449167,25.5667547 140.772704,26.5526376 Z M182.224,67.6383141 L182.224,89.2459376 C182.224,94.5558318 180.828667,99.5559141 178.3845,103.900267 L192.2445,117.490055 C195.713,120.890996 195.763167,126.507208 192.3565,129.971044 C188.949833,133.433714 183.321833,133.482632 179.8545,130.082855 L165.614167,116.119196 C161.537833,118.181891 156.935333,119.345432 152.075,119.345432 L121.149,119.345432 C104.567167,119.345432 91,105.801067 91,89.2459376 L91,58.3730788 C91,41.8261024 104.554333,28.2863965 121.125667,28.2735847 C119.907667,32.9335729 119.303333,37.9860671 119.658,43.36002 C111.360667,45.8524906 105.270667,53.5686671 105.270667,62.6370671 L105.270667,84.8724671 C105.270667,95.9406671 114.340333,104.996255 125.428333,104.996255 L147.354667,104.996255 C154.641667,104.996255 161.058333,101.084008 164.6015,95.2604788 C171.6505,87.6071965 178.962,78.2301494 182.224,67.6383141 Z" id="Combined-Shape"></path>
        </g>
    </g>
</svg>