<?xml version="1.0" encoding="UTF-8"?>
<svg width="24px" height="23px" viewBox="0 0 24 23" version="1.1" xmlns="http://www.w3.org/2000/svg" xmlns:xlink="http://www.w3.org/1999/xlink">
    <!-- Generator: Sketch 46 (44423) - http://www.bohemiancoding.com/sketch -->
    <title>xxhdpi/Sub header</title>
    <desc>Created with Sketch.</desc>
    <defs></defs>
    <g id="Symbols" stroke="none" stroke-width="1" fill="none" fill-rule="evenodd">
        <g id="Card-View/Aceito-dinheiro-sem-frete" transform="translate(-738.000000, -87.000000)">
            <g id="Card-View">
                <rect id="Background" fill="#FFFFFF" x="0" y="0" width="884" height="584"></rect>
                <rect id="Rectangle-2" x="0" y="0" width="884" height="134"></rect>
                <g id="Sub-header" transform="translate(385.000000, 87.000000)" fill-opacity="0.396654212" fill-rule="nonzero" fill="#000000">
                    <g id="receive-cash" transform="translate(355.000000, 4.000000)">
                        <path d="M12.8342874,0 C11.6339354,0 10.671153,0.835931795 10.4710943,1.90051967 C11.271329,1.90051967 11.9996678,2.20489968 12.5592068,2.66072754 L12.5592068,2.01930215 L12.0715637,2.01930215 L12.6717398,1.44914625 L13.1593828,1.44914625 L13.1593828,3.15961396 L13.0343461,3.15961396 C13.3141158,3.53971789 13.5141745,3.98663688 13.6345222,4.44246474 C14.5941788,4.13808473 15.2725026,3.30660737 15.2725026,2.28062361 C15.2318659,1.02598376 14.1549872,0 12.8342874,0 Z M10.4335833,2.28062361 C8.87375101,2.28062361 7.63276182,3.45953991 7.63276182,4.94135115 C7.63276182,6.42316277 8.87375101,7.60207869 10.4335833,7.60207869 C11.993416,7.60207869 13.2344048,6.42316277 13.2344048,4.94135115 C13.2344048,3.45953991 11.993416,2.28062361 10.4335833,2.28062361 Z M10.2335246,3.91982183 L10.7961897,3.91982183 L10.7961897,5.96288048 L10.070977,5.96288048 L10.070977,4.59688196 L9.50831192,4.59688196 L10.2335246,3.91982183 Z M5.39460536,7.60207869 C4.39431197,7.60207869 3.51124057,7.94209345 0.230590741,9.34818114 C0.0305320632,9.42390507 -0.0491789163,9.65701559 0.0305320632,9.84706756 L2.15615551,14.325167 C2.19679263,14.4394951 2.31401422,14.5241279 2.39372519,14.562732 C2.51407289,14.6013365 2.6266059,14.5538235 2.70631688,14.515219 L3.79413594,13.8381589 C4.27396427,13.5337789 4.46620826,13.4981441 5.10702101,13.8025241 L5.95727039,14.2182628 C6.95756378,14.7126948 8.30795986,15.3942094 8.70807721,15.5842613 C9.34889037,15.8886413 9.86779256,16 10.3085466,16 C11.1087813,16 11.6292464,15.6985894 12.1090747,15.3942094 C12.5889031,15.0898293 18.4406194,11.4832964 18.9610845,11.1417966 C19.6018976,10.7230885 19.9988888,10.2271715 19.9988888,9.84706756 C20.039526,8.78247968 18.9579587,8.51670379 17.9983021,9.08685969 L13.7095442,11.8188567 C13.0296571,12.1989607 12.4341701,12.1633259 12.0340527,12.1633259 L9.6333486,12.1633259 C8.55334423,12.1633259 7.23577058,11.783222 7.19513346,11.783222 C7.07478576,11.7446179 7.02946007,11.6332592 7.07009679,11.5575353 C7.11073391,11.4432072 7.18731877,11.4001487 7.30766647,11.4387528 L7.35768114,11.4387528 C7.47802884,11.4773573 8.798729,11.8188567 9.75838527,11.8188567 L12.0340527,11.8188567 C12.3544591,11.8188567 12.5998439,11.7431328 12.7592654,11.6288048 C12.9186874,11.5144767 13.0296571,11.4001487 13.1093681,11.2487008 C13.1093681,11.2100967 13.1593828,11.2160358 13.1593828,11.1774313 L13.1593828,11.1417966 C13.2000199,11.0274685 13.1968938,10.9472902 13.1968938,10.8329621 C13.1968938,10.3771343 12.7967764,9.9213068 11.9965417,9.8827023 C11.355729,9.84409819 10.478909,9.69265033 9.75838527,9.50259837 C9.35826792,9.38827033 9.06755785,9.26948785 8.90813589,9.19376392 C8.78778819,9.11803999 8.66744049,9.01262083 8.50801854,8.86117298 C8.0281902,8.366741 7.31548116,7.60207869 5.39460536,7.60207869 Z M14.0721505,7.60207869 C13.6313964,7.60207869 13.1593828,7.75204148 12.7592654,8.01781737 C12.4794958,8.16926522 11.2791437,8.89383835 10.55862,9.3125464 C11.079085,9.42687444 11.6339354,9.50259837 12.0340527,9.50259837 C12.3138224,9.50259837 12.5967178,9.58129166 12.7967764,9.65701559 L15.3975393,7.98218263 C15.3975393,7.98218263 14.7926742,7.60207869 14.0721505,7.60207869 Z M16.7104243,8.01781737 C16.310307,8.01781737 15.8398566,8.16926522 15.1599696,8.58797327 L13.1593828,9.8827023 C13.4797892,10.1484782 13.6345222,10.4914627 13.6345222,10.8329621 C13.6345222,11.0616186 13.5563744,11.3288792 13.3969525,11.5575353 L13.4344635,11.5219005 L13.4719745,11.4743875 L17.8732654,8.70675575 C17.7529177,8.21232378 17.1105417,8.01781737 16.7104243,8.01781737 Z" id="Shape"></path>
                    </g>
                </g>
            </g>
        </g>
    </g>
</svg>